#!OML:ASF G:\JayActor3\Patient Classification 1\Patient 1\Session 6\male.ASF
:FULLY-SPECIFIED
:DEGREES
1461
root 0.614216 16.4878 -3.15936 23.9766 -85.4069 -27.3756
lowerback 1.88595 -1.22932 2.83251
upperback -4.53234 -1.62716 -1.12284
thorax -5.87397 -0.990673 -2.63821
lowerneck 1.84206 7.46009 6.49353
upperneck 4.17182 10.4599 -16.5
head 2.14704 4.98734 -5.83032
rclavicle -1.17283e-014 -5.1684e-015
rhumerus -48.4201 9.62361 -83.3305
rradius 34.6735
rwrist 4.45035
rhand -10.4804 -2.85782
rfingers 7.12502
rthumb 15.521 -32.2549
lclavicle -1.17283e-014 -5.1684e-015
lhumerus 64.0569 -49.0449 3.78413
lradius 93.0429
lwrist -1.67573
lhand 14.3847 7.36529
lfingers 7.12502
lthumb 39.2721 32.8068
rfemur -3.48128 4.87132 20.4823
rtibia 31.5394
rfoot -26.6807 -18.1644
rtoes 0.574609
lfemur 5.706 6.91019 -12.2956
ltibia 14.0434
lfoot -14.4934 11.7047
ltoes -2.40159
1462
root 0.614346 16.4878 -3.15933 23.9921 -85.408 -27.3964
lowerback 1.87852 -1.22996 2.8392
upperback -4.52606 -1.62754 -1.11876
thorax -5.86317 -0.990751 -2.6379
lowerneck 1.84719 7.46392 6.4915
upperneck 4.16997 10.4646 -16.4835
head 2.14522 4.99044 -5.82489
rclavicle -1.72943e-014 0
rhumerus -48.4135 9.62439 -83.3228
rradius 34.6723
rwrist 4.46178
rhand -10.4682 -2.85777
rfingers 7.12502
rthumb 15.5328 -32.2539
lclavicle -1.72943e-014 0
lhumerus 64.0653 -49.0414 3.77972
lradius 93.0133
lwrist -1.70176
lhand 14.3697 7.3683
lfingers 7.12502
lthumb 39.258 32.8139
rfemur -3.47511 4.86853 20.4828
rtibia 31.5372
rfoot -26.6771 -18.1594
rtoes 0.579262
lfemur 5.71161 6.8993 -12.297
ltibia 14.0429
lfoot -14.4961 11.7174
ltoes -2.40192
1463
root 0.614437 16.4877 -3.15934 24.0832 -85.405 -27.4953
lowerback 1.87317 -1.23141 2.85262
upperback -4.52009 -1.62849 -1.11226
thorax -5.8541 -0.991376 -2.63877
lowerneck 1.85326 7.46651 6.48943
upperneck 4.16786 10.4676 -16.4672
head 2.14297 4.99273 -5.81964
rclavicle -1.41137e-014 2.78299e-015
rhumerus -48.407 9.62518 -83.3148
rradius 34.6684
rwrist 4.47252
rhand -10.4633 -2.85656
rfingers 7.12502
rthumb 15.5375 -32.2523
lclavicle -1.41137e-014 2.78299e-015
lhumerus 64.0745 -49.0395 3.77024
lradius 92.9908
lwrist -1.73849
lhand 14.3625 7.35466
lfingers 7.12502
lthumb 39.2512 32.8023
rfemur -3.46525 4.8665 20.4922
rtibia 31.5326
rfoot -26.6733 -18.1574
rtoes 0.57955
lfemur 5.71774 6.87894 -12.2914
ltibia 14.0468
lfoot -14.5031 11.7361
ltoes -2.39737
1464
root 0.614566 16.4878 -3.15935 24.1987 -85.4011 -27.6154
lowerback 1.86709 -1.23236 2.86848
upperback -4.51673 -1.62873 -1.10535
thorax -5.84739 -0.991851 -2.64062
lowerneck 1.85659 7.4672 6.4877
upperneck 4.16756 10.4682 -16.4514
head 2.14147 4.99365 -5.81459
rclavicle 1.50082e-014 5.96354e-015
rhumerus -48.4018 9.62225 -83.3045
rradius 34.6632
rwrist 4.48163
rhand -10.4552 -2.86097
rfingers 7.12502
rthumb 15.5452 -32.2562
lclavicle 1.50082e-014 5.96354e-015
lhumerus 64.0873 -49.0398 3.75276
lradius 92.9772
lwrist -1.78379
lhand 14.3579 7.33099
lfingers 7.12502
lthumb 39.2469 32.7798
rfemur -3.45835 4.86602 20.5037
rtibia 31.5255
rfoot -26.6677 -18.1586
rtoes 0.57631
lfemur 5.71682 6.86497 -12.2829
ltibia 14.0564
lfoot -14.5091 11.7501
ltoes -2.40279
1465
root 0.614612 16.4877 -3.15938 24.2731 -85.3982 -27.696
lowerback 1.8621 -1.23304 2.88096
upperback -4.51316 -1.62876 -1.09914
thorax -5.84098 -0.992083 -2.64129
lowerneck 1.85846 7.46519 6.48754
upperneck 4.16541 10.4651 -16.4403
head 2.13955 4.99265 -5.81137
rclavicle -7.35503e-015 -2.38542e-015
rhumerus -48.3961 9.61457 -83.2911
rradius 34.6565
rwrist 4.48847
rhand -10.4543 -2.8637
rfingers 7.12502
rthumb 15.5461 -32.2588
lclavicle -7.35503e-015 -2.38542e-015
lhumerus 64.1043 -49.0411 3.72827
lradius 92.9749
lwrist -1.82729
lhand 14.3647 7.30114
lfingers 7.12502
lthumb 39.2533 32.7481
rfemur -3.44878 4.86534 20.5116
rtibia 31.5178
rfoot -26.6634 -18.1598
rtoes 0.570582
lfemur 5.71768 6.8556 -12.2763
ltibia 14.0674
lfoot -14.5168 11.7565
ltoes -2.39605
1466
root 0.61468 16.4877 -3.15941 24.3681 -85.3952 -27.7951
lowerback 1.85596 -1.23318 2.89526
upperback -4.51068 -1.62803 -1.09243
thorax -5.83506 -0.992046 -2.64254
lowerneck 1.86014 7.46208 6.48602
upperneck 4.16074 10.4601 -16.4288
head 2.13663 4.99081 -5.80793
rclavicle 4.37326e-015 3.57812e-015
rhumerus -48.3902 9.60195 -83.2751
rradius 34.6495
rwrist 4.4952
rhand -10.4589 -2.86537
rfingers 7.12502
rthumb 15.5417 -32.2608
lclavicle 4.37326e-015 3.57812e-015
lhumerus 64.1238 -49.0437 3.69862
lradius 92.9841
lwrist -1.86101
lhand 14.3805 7.26829
lfingers 7.12502
lthumb 39.2682 32.711
rfemur -3.44172 4.86646 20.5214
rtibia 31.5106
rfoot -26.6603 -18.1625
rtoes 0.563307
lfemur 5.71691 6.84714 -12.2684
ltibia 14.0769
lfoot -14.5235 11.7631
ltoes -2.38625
1467
root 0.614817 16.4877 -3.15922 24.3754 -85.3915 -27.8066
lowerback 1.85427 -1.23411 2.90752
upperback -4.51099 -1.62853 -1.08862
thorax -5.83474 -0.992749 -2.64544
lowerneck 1.8618 7.4575 6.48793
upperneck 4.15713 10.4534 -16.4207
head 2.13416 4.98808 -5.80613
rclavicle -1.85864e-014 -4.37326e-015
rhumerus -48.3891 9.58784 -83.26
rradius 34.6437
rwrist 4.50112
rhand -10.4705 -2.8617
rfingers 7.12502
rthumb 15.5305 -32.258
lclavicle -1.85864e-014 -4.37326e-015
lhumerus 64.1423 -49.0514 3.66732
lradius 93.0049
lwrist -1.87662
lhand 14.4005 7.23871
lfingers 7.12502
lthumb 39.287 32.6759
rfemur -3.43443 4.85917 20.5225
rtibia 31.5049
rfoot -26.656 -18.1613
rtoes 0.5539
lfemur 5.71768 6.84088 -12.2672
ltibia 14.0828
lfoot -14.527 11.7647
ltoes -2.3797
1468
root 0.614927 16.4877 -3.15905 24.3508 -85.3889 -27.7847
lowerback 1.85101 -1.23503 2.91641
upperback -4.51163 -1.62927 -1.08529
thorax -5.83379 -0.993435 -2.64697
lowerneck 1.85998 7.45272 6.48774
upperneck 4.15436 10.4465 -16.411
head 2.1323 4.985 -5.80338
rclavicle 4.96962e-015 7.95139e-016
rhumerus -48.3893 9.57534 -83.246
rradius 34.6401
rwrist 4.5066
rhand -10.4884 -2.85258
rfingers 7.12502
rthumb 15.5133 -32.2502
lclavicle 4.96962e-015 7.95139e-016
lhumerus 64.1571 -49.0593 3.63793
lradius 93.0341
lwrist -1.87292
lhand 14.4115 7.21522
lfingers 7.12502
lthumb 39.2974 32.6494
rfemur -3.42888 4.85176 20.5203
rtibia 31.5004
rfoot -26.6517 -18.1609
rtoes 0.549083
lfemur 5.7181 6.82954 -12.2706
ltibia 14.0869
lfoot -14.5307 11.772
ltoes -2.37345
1469
root 0.614986 16.4876 -3.15884 24.2964 -85.3866 -27.7334
lowerback 1.8477 -1.23626 2.92226
upperback -4.51242 -1.63054 -1.0813
thorax -5.83289 -0.994233 -2.64606
lowerneck 1.86006 7.44688 6.48595
upperneck 4.14824 10.4377 -16.4041
head 2.129 4.98114 -5.80145
rclavicle 2.18663e-015 2.78299e-015
rhumerus -48.3919 9.569 -83.2337
rradius 34.6392
rwrist 4.50885
rhand -10.5092 -2.84318
rfingers 7.12502
rthumb 15.4932 -32.2424
lclavicle 2.18663e-015 2.78299e-015
lhumerus 64.1667 -49.0691 3.61298
lradius 93.0721
lwrist -1.85164
lhand 14.4079 7.21211
lfingers 7.12502
lthumb 39.294 32.6473
rfemur -3.42295 4.84017 20.5147
rtibia 31.4972
rfoot -26.6464 -18.1575
rtoes 0.543462
lfemur 5.72151 6.8126 -12.2777
ltibia 14.0877
lfoot -14.5366 11.782
ltoes -2.35548
1470
root 0.615061 16.4876 -3.15854 24.2713 -85.3835 -27.7101
lowerback 1.8433 -1.23713 2.9301
upperback -4.51371 -1.63118 -1.07543
thorax -5.83185 -0.994769 -2.64437
lowerneck 1.86055 7.44033 6.48013
upperneck 4.13966 10.4275 -16.3968
head 2.12451 4.97662 -5.79885
rclavicle -3.22031e-014 -4.37326e-015
rhumerus -48.3969 9.56998 -83.224
rradius 34.6411
rwrist 4.50457
rhand -10.5295 -2.836
rfingers 7.12502
rthumb 15.4737 -32.2367
lclavicle -3.22031e-014 -4.37326e-015
lhumerus 64.1721 -49.0787 3.59423
lradius 93.1133
lwrist -1.81858
lhand 14.3876 7.21929
lfingers 7.12502
lthumb 39.2749 32.66
rfemur -3.41916 4.82411 20.51
rtibia 31.4947
rfoot -26.639 -18.149
rtoes 0.54225
lfemur 5.72352 6.80508 -12.2805
ltibia 14.0875
lfoot -14.5363 11.7864
ltoes -2.3605
1471
root 0.615033 16.4876 -3.15832 24.2385 -85.3825 -27.6784
lowerback 1.83629 -1.23664 2.93322
upperback -4.51419 -1.63022 -1.06833
thorax -5.82812 -0.99421 -2.63892
lowerneck 1.86108 7.43306 6.47023
upperneck 4.12826 10.4159 -16.3879
head 2.11873 4.97147 -5.79519
rclavicle 3.18055e-015 1.39149e-014
rhumerus -48.4032 9.57592 -83.216
rradius 34.6458
rwrist 4.49646
rhand -10.5422 -2.83302
rfingers 7.12502
rthumb 15.4615 -32.2347
lclavicle 3.18055e-015 1.39149e-014
lhumerus 64.1776 -49.0861 3.5781
lradius 93.1545
lwrist -1.78553
lhand 14.3657 7.22739
lfingers 7.12502
lthumb 39.2543 32.6741
rfemur -3.41688 4.81136 20.504
rtibia 31.4931
rfoot -26.6339 -18.1396
rtoes 0.544863
lfemur 5.72605 6.79757 -12.2851
ltibia 14.086
lfoot -14.5363 11.7917
ltoes -2.36579
1472
root 0.615078 16.4877 -3.15804 24.2258 -85.3816 -27.6641
lowerback 1.83153 -1.23477 2.93923
upperback -4.51862 -1.62732 -1.06153
thorax -5.82985 -0.993007 -2.63547
lowerneck 1.86559 7.42451 6.45847
upperneck 4.1166 10.4024 -16.3755
head 2.11169 4.96563 -5.79039
rclavicle 1.19271e-014 1.74931e-014
rhumerus -48.4173 9.58386 -83.2113
rradius 34.6539
rwrist 4.48457
rhand -10.5422 -2.83936
rfingers 7.12502
rthumb 15.4615 -32.241
lclavicle 1.19271e-014 1.74931e-014
lhumerus 64.1868 -49.097 3.56126
lradius 93.1915
lwrist -1.76196
lhand 14.3444 7.22573
lfingers 7.12502
lthumb 39.2341 32.6783
rfemur -3.41898 4.7976 20.4985
rtibia 31.493
rfoot -26.6277 -18.1277
rtoes 0.547904
lfemur 5.72623 6.80199 -12.2863
ltibia 14.0823
lfoot -14.5304 11.7887
ltoes -2.38275
1473
root 0.615255 16.4878 -3.15746 24.1246 -85.3806 -27.5608
lowerback 1.83151 -1.23186 2.94463
upperback -4.52605 -1.62319 -1.05917
thorax -5.8375 -0.991446 -2.63626
lowerneck 1.87439 7.41372 6.44928
upperneck 4.10486 10.3859 -16.3619
head 2.10363 4.95863 -5.786
rclavicle -1.27222e-014 -7.95139e-015
rhumerus -48.4388 9.58737 -83.2088
rradius 34.6632
rwrist 4.47406
rhand -10.5299 -2.84999
rfingers 7.12502
rthumb 15.4734 -32.2507
lclavicle -1.27222e-014 -7.95139e-015
lhumerus 64.2062 -49.1105 3.53667
lradius 93.2233
lwrist -1.74953
lhand 14.3252 7.21898
lfingers 7.12502
lthumb 39.2161 32.6768
rfemur -3.42175 4.77409 20.4823
rtibia 31.4937
rfoot -26.6178 -18.1082
rtoes 0.555126
lfemur 5.72601 6.80592 -12.2958
ltibia 14.0779
lfoot -14.5235 11.7848
ltoes -2.40261
1474
root 0.615598 16.4879 -3.15675 23.9344 -85.3804 -27.3677
lowerback 1.83126 -1.22927 2.94489
upperback -4.53283 -1.61988 -1.05931
thorax -5.8443 -0.990096 -2.63671
lowerneck 1.88248 7.40431 6.43783
upperneck 4.0917 10.371 -16.3433
head 2.09509 4.95251 -5.77957
rclavicle -6.95746e-015 -7.95139e-016
rhumerus -48.4581 9.58982 -83.2072
rradius 34.67
rwrist 4.4663
rhand -10.515 -2.86237
rfingers 7.12502
rthumb 15.4876 -32.262
lclavicle -6.95746e-015 -7.95139e-016
lhumerus 64.2313 -49.1198 3.50764
lradius 93.2484
lwrist -1.74631
lhand 14.3107 7.19986
lfingers 7.12502
lthumb 39.2024 32.6616
rfemur -3.42605 4.74501 20.4568
rtibia 31.4955
rfoot -26.6055 -18.086
rtoes 0.553223
lfemur 5.72496 6.80978 -12.3135
ltibia 14.0725
lfoot -14.5171 11.779
ltoes -2.40992
1475
root 0.616103 16.4879 -3.15598 23.8436 -85.3744 -27.2775
lowerback 1.84024 -1.22662 2.95801
upperback -4.54236 -1.61561 -1.05909
thorax -5.8597 -0.989017 -2.64387
lowerneck 1.89468 7.39536 6.43222
upperneck 4.0809 10.3573 -16.3234
head 2.08691 4.9472 -5.7738
rclavicle 7.95139e-016 8.74653e-015
rhumerus -48.4823 9.58761 -83.2083
rradius 34.672
rwrist 4.4657
rhand -10.4942 -2.86764
rfingers 7.12502
rthumb 15.5077 -32.2657
lclavicle 7.95139e-016 8.74653e-015
lhumerus 64.2658 -49.1334 3.46901
lradius 93.2671
lwrist -1.74985
lhand 14.3025 7.17385
lfingers 7.12502
lthumb 39.1947 32.6378
rfemur -3.42659 4.71503 20.4428
rtibia 31.4963
rfoot -26.5912 -18.068
rtoes 0.539599
lfemur 5.72629 6.80817 -12.3206
ltibia 14.068
lfoot -14.5138 11.7742
ltoes -2.40301
